<?xml version="1.0" encoding="utf-8"?>
<!-- Generator: Adobe Illustrator 16.0.0, SVG Export Plug-In . SVG Version: 6.00 Build 0)  -->
<!DOCTYPE svg PUBLIC "-//W3C//DTD SVG 1.1//EN" "http://www.w3.org/Graphics/SVG/1.1/DTD/svg11.dtd">
<svg version="1.1" id="Layer_1" xmlns:serif="http://www.serif.com/"
	 xmlns="http://www.w3.org/2000/svg" xmlns:xlink="http://www.w3.org/1999/xlink" x="0px" y="0px" width="612px" height="612px"
	 viewBox="0 90 612 612" enable-background="new 0 90 612 612" xml:space="preserve">
<path d="M546.424,90H65.575C29.345,90,0,119.345,0,155.576v480.848C0,672.654,29.345,702,65.575,702h480.849
	c36.23,0,65.576-29.346,65.576-65.576V155.576C612,119.345,582.655,90,546.424,90z M185.1,614.576H94.248V322.499H185.1V614.576z
	 M139.62,282.562c-28.885,0-52.301-23.56-52.301-52.622c0-29.062,23.416-52.621,52.301-52.621s52.302,23.56,52.302,52.621
	C191.922,259.002,168.505,282.562,139.62,282.562z M524.973,614.576h-90.698V472.5c0-33.874-0.673-77.449-47.124-77.449
	c-47.276,0-54.498,36.874-54.498,75v144.524h-90.729V322.499h87.025v39.902h1.225c12.179-22.95,41.799-47.124,85.925-47.124
	c91.8,0,108.874,60.496,108.874,139.199V614.576z"/>
</svg>
