<?xml version="1.0" encoding="utf-8"?>
<!-- Generator: Adobe Illustrator 16.0.0, SVG Export Plug-In . SVG Version: 6.00 Build 0)  -->
<!DOCTYPE svg PUBLIC "-//W3C//DTD SVG 1.1//EN" "http://www.w3.org/Graphics/SVG/1.1/DTD/svg11.dtd">
<svg version="1.1" id="Layer_1" xmlns="http://www.w3.org/2000/svg" xmlns:xlink="http://www.w3.org/1999/xlink" x="0px" y="0px"
	 width="494.954px" height="238.334px" viewBox="0 0 494.954 238.334" enable-background="new 0 0 494.954 238.334"
	 xml:space="preserve">
<path fill-rule="evenodd" clip-rule="evenodd" d="M400.306,116.57c-13.814-0.08-27.634-0.447-41.441-0.184
	c-27.636,0.529-55.282,1.041-82.895,2.227c-36.089,1.547-72.15,3.744-108.224,5.637c-2.312,0.121-4.636,0.016-8.382,0.016
	c26.888-36.128,53.241-71.538,79.742-107.146c-3.859-1.919-5.928,0.21-7.967,2.816c-19.813,25.327-39.697,50.599-59.472,75.956
	c-6.044,7.75-11.865,15.676-17.694,23.59c-4.987,6.773-5.034,6.861-14.387,5.65c22.831-37.622,50.62-71.807,72.481-109.837
	c-0.435-0.387-0.87-0.773-1.305-1.159c-2.28,2.354-4.915,4.457-6.784,7.101c-23.85,33.723-47.625,67.498-71.289,101.351
	c-1.876,2.684-3.677,4.119-7.093,4.281c-10.135,0.482-20.249,1.381-30.874,2.152c0-43.081,0-85.905,0-129.021
	c101.747,0,203.331,0,305.252,0c0.156,1.078,0.451,2.167,0.452,3.257c0.023,36.828,0.021,73.656,0.006,110.483
	c0,0.992-0.189,1.984-0.291,2.975L400.306,116.57z M254.415,100.469c-2.945-6.72-5.564-12.696-8.499-19.391
	c-1.312,0.621-3.647,1.045-4.922,2.44c-8.906,9.74-13.204,21.988-18.657,33.945c4.407,1.447,6.539-0.313,8.058-3.541
	c3.441-7.311,6.945-14.592,11.039-23.174c2.648,5.149,4.828,8.829,6.471,12.733c1.861,4.424,3.157,5.23,7.021,2.172
	c4.684-3.709,8.871-8.041,13.327-12.043c2.764-2.484,5.627-4.859,8.445-7.282c-1.343,10.194-6.405,19.327-3.89,29.722
	c3.267,0.166,5.723-0.176,6.443-3.967c1.538-8.096,3.285-16.152,5.01-24.211c0.563-2.64,1.322-5.239,2.27-8.94
	C272.066,81.377,264.714,91.991,254.415,100.469z M317.27,97.02c-17.828-1.654-28.678,4.326-29.845,16.816
	c12.867,3.494,25.556,1.953,37.305-0.547c-0.321-2.189-0.947-3.68-0.663-4.971c1.649-7.494,1.646-14.733-1.642-21.906
	c-4.016-8.758-17.519-10.933-25.328-3.85c5.275-0.283,10.396-3.666,14.553,1.131C314.961,87.514,317.306,91.711,317.27,97.02z
	 M230.004,84.436c-0.979-0.822-1.901-2.229-2.827-2.23c-1.455-0.004-3.735,0.528-4.242,1.543
	c-5.18,10.381-10.122,20.882-14.952,31.431c-0.391,0.855,0.18,2.799,0.946,3.361c0.857,0.629,2.839,0.789,3.631,0.203
	c1.351-0.996,2.396-2.617,3.149-4.18c4.177-8.658,8.226-17.377,12.325-26.072C228.593,87.308,229.178,86.136,230.004,84.436z
	 M232.325,69.794c-0.714,0.449-1.428,0.897-2.142,1.346c-0.644,0.725-1.287,1.449-1.931,2.174c1.245,1.07,2.378,2.361,3.801,3.076
	c0.43,0.216,2.483-1.36,2.383-1.777C234.032,72.935,233.077,71.39,232.325,69.794z"/>
<path fill-rule="evenodd" clip-rule="evenodd" d="M400.26,121.301c0,27.652,0,54.764,0,82.332c-96.695,0-193.32,0-290.427,0
	c0.386-1.018,0.571-1.938,1.037-2.68c14.168-22.555,28.294-45.137,42.682-67.551c1.176-1.834,4.111-3.455,6.317-3.576
	c46.356-2.549,92.708-5.287,139.097-7.09c32.261-1.256,64.575-1.17,96.866-1.666C397.147,121.051,398.464,121.203,400.26,121.301z"
	/>
<path fill-rule="evenodd" clip-rule="evenodd" d="M47.406,135.246c11.165-1.242,20.724-2.328,30.289-3.359
	c3.311-0.357,6.649-0.879,9.952-0.748c2.045,0.08,5.486-2.422,5.834,1.844c0.061,0.744-3.309,2.334-5.217,2.578
	c-9.25,1.191-18.535,2.131-27.823,3.006c-4.202,0.396-6.47,1.674-4.985,6.539c3.687,12.074,6.801,24.332,10.748,36.318
	c4.471,13.58,9.593,26.943,14.45,40.396c0.318,0.879,0.786,1.707,1.484,3.201c4.165-6.484,8.077-12.424,11.779-18.492
	c0.598-0.98,0.346-2.529,0.347-3.816c0.01-21.496-0.005-42.992,0-64.49c0-0.65,0.155-1.299,0.335-2.719
	c10.109-0.74,20.27-1.484,31.816-2.328c-3.395,5.344-6.207,9.576-8.813,13.932c-2.479,4.143-4.942,8.318-6.982,12.682
	c-0.627,1.344,0.161,3.348,0.301,5.049c1.992-0.629,4.86-0.643,5.812-2c2.945-4.203,5.076-8.967,7.685-13.418
	c2.188-3.732,4.972-7.156,6.83-11.033c2.805-5.852,7.37-7.041,13.883-6.041c-16.837,24.16-33.473,48.033-50.964,73.131
	c5.375,0,9.217,0,13.989,0c-1.343,2.514-2.124,4.094-3.01,5.611c-4.783,8.199-9.691,16.328-14.334,24.605
	c-1.594,2.842-3.297,3.271-6.055,1.854c-3.82-1.965-6.255-4.381-7.717-8.945c-6.344-19.795-13.643-39.283-20.113-59.043
	C53.376,158.717,50.786,147.561,47.406,135.246z"/>
<path fill-rule="evenodd" clip-rule="evenodd" d="M400.142,117.875c17.109,0.193,34.225,0.176,51.326,0.646
	c12.608,0.35,25.201,1.301,37.795,2.082c1.931,0.119,3.828,0.76,5.69,1.711c-5.321,0-10.644,0.027-15.964-0.004
	c-24.612-0.145-49.224-0.371-73.835-0.385c-3.262-0.002-5.075-0.664-4.842-4.201C400.306,117.73,400.142,117.875,400.142,117.875z"
	/>
<path fill-rule="evenodd" clip-rule="evenodd" fill="#FFFFFF" d="M254.415,101.629c10.3-8.478,17.651-19.092,32.117-21.538
	c-0.947,3.701-1.706,6.3-2.27,8.94c-1.725,8.059-3.472,16.115-5.01,24.211c-0.721,3.791-3.177,4.133-6.443,3.967
	c-2.516-10.395,2.547-19.527,3.89-29.722c-2.818,2.423-5.682,4.798-8.445,7.282c-4.456,4.002-8.644,8.334-13.327,12.043
	c-3.864,3.059-5.16,2.252-7.021-2.172c-1.644-3.904-3.823-7.584-6.471-12.733c-4.094,8.583-7.598,15.864-11.039,23.174
	c-1.52,3.229-3.651,4.988-8.058,3.541c5.453-11.957,9.751-24.205,18.657-33.945c1.275-1.395,3.61-1.819,4.922-2.44
	C248.85,88.933,251.469,94.908,254.415,101.629z"/>
<path fill-rule="evenodd" clip-rule="evenodd" fill="#FFFFFF" d="M317.27,98.18c0.036-5.309-2.309-9.506-5.62-13.326
	c-4.157-4.797-9.277-1.414-14.553-1.131c7.81-7.083,21.313-4.908,25.328,3.85c3.288,7.171,3.291,14.412,1.642,21.906
	c-0.284,1.291,0.342,2.781,0.663,4.971c-11.749,2.5-24.438,4.041-37.305,0.547C288.592,102.506,299.442,96.525,317.27,98.18z
	 M316.687,114.027c-0.815-3.027-1.161-5.168-1.96-7.125c-3.392-8.309-9.511-9.445-15.652-2.955c-1.132,1.195-2.211,2.498-3.03,3.916
	c-1.797,3.105-1.29,5.807,2.633,6.066C304.384,114.311,310.137,114.027,316.687,114.027z"/>
<path fill-rule="evenodd" clip-rule="evenodd" fill="#FFFFFF" d="M230.004,85.596c-0.826,1.7-1.411,2.872-1.969,4.057
	c-4.099,8.695-8.147,17.414-12.325,26.072c-0.753,1.563-1.798,3.184-3.149,4.18c-0.792,0.586-2.774,0.426-3.631-0.203
	c-0.767-0.563-1.337-2.506-0.946-3.361c4.83-10.549,9.771-21.051,14.952-31.431c0.507-1.015,2.787-1.547,4.242-1.543
	C228.104,83.368,229.026,84.774,230.004,85.596z"/>
<path fill-rule="evenodd" clip-rule="evenodd" fill="#FFFFFF" d="M232.325,70.955c0.752,1.595,1.707,3.141,2.111,4.819
	c0.1,0.417-1.953,1.993-2.383,1.777c-1.423-0.715-2.556-2.006-3.801-3.076c0.644-0.725,1.287-1.449,1.931-2.174
	C230.897,71.852,231.611,71.403,232.325,70.955z"/>
<path fill-rule="evenodd" clip-rule="evenodd" d="M316.687,114.027c-6.55,0-12.303,0.283-18.01-0.098
	c-3.923-0.26-4.43-2.961-2.633-6.066c0.819-1.418,1.898-2.721,3.03-3.916c6.142-6.49,12.261-5.354,15.652,2.955
	C315.526,108.859,315.872,111,316.687,114.027z"/>
</svg>
