<?xml version="1.0" encoding="utf-8"?>
<!-- Generator: Adobe Illustrator 16.0.0, SVG Export Plug-In . SVG Version: 6.00 Build 0)  -->
<!DOCTYPE svg PUBLIC "-//W3C//DTD SVG 1.1//EN" "http://www.w3.org/Graphics/SVG/1.1/DTD/svg11.dtd">
<svg version="1.1" id="Layer_1" xmlns="http://www.w3.org/2000/svg" xmlns:xlink="http://www.w3.org/1999/xlink" x="0px" y="0px"
	 width="494.954px" height="238.334px" viewBox="0 0 494.954 238.334" enable-background="new 0 0 494.954 238.334"
	 xml:space="preserve">
<path fill-rule="evenodd" clip-rule="evenodd" fill="#FFFFFF" d="M254.415,101.629c10.3-8.478,17.651-19.092,32.117-21.538
	c-0.947,3.701-1.706,6.3-2.27,8.94c-1.725,8.059-3.472,16.115-5.01,24.211c-0.721,3.791-3.177,4.133-6.443,3.967
	c-2.516-10.395,2.547-19.527,3.89-29.722c-2.818,2.423-5.682,4.798-8.445,7.282c-4.456,4.002-8.644,8.334-13.327,12.043
	c-3.864,3.059-5.16,2.252-7.021-2.172c-1.644-3.904-3.823-7.584-6.471-12.733c-4.094,8.583-7.598,15.864-11.039,23.174
	c-1.52,3.229-3.651,4.988-8.058,3.541c5.453-11.957,9.751-24.205,18.657-33.945c1.275-1.395,3.61-1.819,4.922-2.44
	C248.85,88.933,251.469,94.908,254.415,101.629z"/>
<path fill-rule="evenodd" clip-rule="evenodd" fill="#FFFFFF" d="M317.27,98.18c0.036-5.309-2.309-9.506-5.62-13.326
	c-4.157-4.797-9.277-1.414-14.553-1.131c7.81-7.083,21.313-4.908,25.328,3.85c3.288,7.171,3.291,14.412,1.642,21.906
	c-0.284,1.291,0.342,2.781,0.663,4.971c-11.749,2.5-24.438,4.041-37.305,0.547C288.592,102.506,299.442,96.525,317.27,98.18z
	 M316.687,114.027c-0.815-3.027-1.161-5.168-1.96-7.125c-3.392-8.309-9.511-9.445-15.652-2.955c-1.132,1.195-2.211,2.498-3.03,3.916
	c-1.797,3.105-1.29,5.807,2.633,6.066C304.384,114.311,310.137,114.027,316.687,114.027z"/>
<path fill-rule="evenodd" clip-rule="evenodd" fill="#FFFFFF" d="M230.004,85.596c-0.826,1.7-1.411,2.872-1.969,4.057
	c-4.099,8.695-8.147,17.414-12.325,26.072c-0.753,1.563-1.798,3.184-3.149,4.18c-0.792,0.586-2.774,0.426-3.631-0.203
	c-0.767-0.563-1.337-2.506-0.946-3.361c4.83-10.549,9.771-21.051,14.952-31.431c0.507-1.015,2.787-1.547,4.242-1.543
	C228.104,83.368,229.026,84.774,230.004,85.596z"/>
<path fill-rule="evenodd" clip-rule="evenodd" fill="#FFFFFF" d="M232.325,70.955c0.752,1.595,1.707,3.141,2.111,4.819
	c0.1,0.417-1.953,1.993-2.383,1.777c-1.423-0.715-2.556-2.006-3.801-3.076c0.644-0.725,1.287-1.449,1.931-2.174
	C230.897,71.852,231.611,71.403,232.325,70.955z"/>
<g>
	<path fill-rule="evenodd" clip-rule="evenodd" fill="#F6861F" d="M400.142,117.875c0.056,0.001,0.11,0.001,0.166,0.002
		c0.003-0.053,0.001-0.099,0.005-0.152C400.306,117.73,400.142,117.875,400.142,117.875z"/>
	<path fill-rule="evenodd" clip-rule="evenodd" fill="#F6861F" d="M489.263,120.604c-12.594-0.781-25.187-1.732-37.795-2.082
		c-17.046-0.469-34.106-0.453-51.16-0.645c-0.169,3.398,1.634,4.047,4.847,4.049c24.611,0.014,49.223,0.24,73.835,0.385
		c5.32,0.031,10.643,0.004,15.964,0.004C493.091,121.363,491.194,120.723,489.263,120.604z"/>
	<path fill-rule="evenodd" clip-rule="evenodd" fill="#F6861F" d="M400.306,116.57c-0.049,0-0.098-0.001-0.146-0.001
		c-0.006,0.049-0.013,0.097-0.018,0.146L400.306,116.57z"/>
	<path fill-rule="evenodd" clip-rule="evenodd" fill="#F6861F" d="M132.689,122.588c23.664-33.853,47.439-67.628,71.289-101.351
		c1.87-2.644,4.504-4.746,6.784-7.101c0.435,0.386,0.87,0.772,1.305,1.159c-21.861,38.03-49.65,72.215-72.481,109.837
		c9.353,1.211,9.399,1.123,14.387-5.65c5.829-7.914,11.65-15.84,17.694-23.59c19.775-25.357,39.659-50.629,59.472-75.956
		c2.039-2.606,4.107-4.736,7.967-2.816c-26.501,35.607-52.854,71.017-79.742,107.146c3.746,0,6.07,0.105,8.382-0.016
		c36.074-1.893,72.135-4.09,108.224-5.637c27.612-1.186,55.259-1.697,82.895-2.227c13.759-0.263,27.529,0.101,41.295,0.183
		c0.104-0.942,0.273-1.886,0.273-2.829c0.016-36.827,0.018-73.655-0.006-110.483c-0.001-1.09-0.296-2.18-0.452-3.257
		C298.053,0,196.469,0,94.723,0c0,43.117,0,85.941,0,129.021c10.625-0.771,20.739-1.67,30.874-2.152
		C129.012,126.707,130.813,125.271,132.689,122.588z M230.183,71.141c0.714-0.449,1.428-0.897,2.142-1.346
		c0.752,1.595,1.707,3.141,2.111,4.819c0.1,0.417-1.953,1.993-2.383,1.777c-1.423-0.715-2.556-2.006-3.801-3.076
		C228.896,72.59,229.539,71.865,230.183,71.141z M212.562,118.744c-0.792,0.586-2.774,0.426-3.631-0.203
		c-0.767-0.563-1.337-2.506-0.946-3.361c4.83-10.549,9.771-21.05,14.952-31.431c0.507-1.015,2.787-1.547,4.242-1.543
		c0.926,0.002,1.848,1.409,2.827,2.23c-0.826,1.7-1.411,2.872-1.969,4.057c-4.099,8.695-8.147,17.414-12.325,26.072
		C214.958,116.127,213.913,117.748,212.562,118.744z M317.27,97.02c0.036-5.309-2.309-9.506-5.62-13.326
		c-4.157-4.797-9.277-1.414-14.553-1.131c7.81-7.083,21.313-4.908,25.328,3.85c3.288,7.172,3.291,14.412,1.642,21.906
		c-0.284,1.291,0.342,2.781,0.663,4.971c-11.749,2.5-24.438,4.041-37.305,0.547C288.592,101.346,299.442,95.365,317.27,97.02z
		 M245.916,81.078c2.935,6.694,5.554,12.671,8.499,19.391c10.3-8.478,17.651-19.092,32.117-21.538c-0.947,3.701-1.706,6.3-2.27,8.94
		c-1.725,8.059-3.472,16.115-5.01,24.211c-0.721,3.791-3.177,4.133-6.443,3.967c-2.516-10.395,2.547-19.527,3.89-29.722
		c-2.818,2.423-5.682,4.798-8.445,7.282c-4.456,4.002-8.644,8.334-13.327,12.043c-3.864,3.059-5.16,2.252-7.021-2.172
		c-1.644-3.904-3.823-7.584-6.471-12.733c-4.094,8.583-7.598,15.864-11.039,23.174c-1.52,3.229-3.651,4.988-8.058,3.541
		c5.453-11.957,9.751-24.205,18.657-33.945C242.269,82.124,244.604,81.699,245.916,81.078z"/>
	<path fill-rule="evenodd" clip-rule="evenodd" fill="#F6861F" d="M298.966,122.736c-46.389,1.803-92.741,4.541-139.097,7.09
		c-2.206,0.121-5.141,1.742-6.317,3.576c-14.388,22.414-28.514,44.996-42.682,67.551c-0.466,0.742-0.651,1.662-1.037,2.68
		c97.107,0,193.732,0,290.427,0c0-27.568,0-54.68,0-82.332c-1.796-0.098-3.113-0.25-4.428-0.23
		C363.542,121.566,331.227,121.48,298.966,122.736z"/>
	<path fill-rule="evenodd" clip-rule="evenodd" fill="#F6861F" d="M93.917,206.529c-3.702,6.068-7.614,12.008-11.779,18.492
		c-0.698-1.494-1.166-2.322-1.484-3.201c-4.857-13.453-9.979-26.816-14.45-40.396c-3.947-11.986-7.061-24.244-10.748-36.318
		c-1.485-4.865,0.783-6.143,4.985-6.539c9.288-0.875,18.573-1.814,27.823-3.006c1.908-0.244,5.278-1.834,5.217-2.578
		c-0.349-4.266-3.789-1.764-5.834-1.844c-3.303-0.131-6.641,0.391-9.952,0.748c-9.565,1.031-19.124,2.117-30.289,3.359
		c3.38,12.314,5.971,23.471,9.521,34.313c6.47,19.76,13.769,39.248,20.113,59.043c1.462,4.564,3.897,6.98,7.717,8.945
		c2.758,1.418,4.461,0.988,6.055-1.854c4.643-8.277,9.552-16.406,14.334-24.605c0.886-1.518,1.667-3.098,3.01-5.611
		c-4.745,0-8.574,0-13.901,0C94.201,205.864,94.103,206.226,93.917,206.529z"/>
	<path fill-rule="evenodd" clip-rule="evenodd" fill="#F6861F" d="M94.167,205.477c0.03,0,0.058,0,0.088,0
		c0.007-0.053,0.017-0.104,0.022-0.159C94.241,205.371,94.204,205.424,94.167,205.477z"/>
	<path fill-rule="evenodd" clip-rule="evenodd" fill="#F6861F" d="M131.248,138.387c-1.858,3.877-4.643,7.301-6.83,11.033
		c-2.609,4.451-4.74,9.215-7.685,13.418c-0.951,1.357-3.82,1.371-5.812,2c-0.14-1.701-0.928-3.705-0.301-5.049
		c2.04-4.363,4.503-8.539,6.982-12.682c2.606-4.355,5.418-8.588,8.813-13.932c-11.546,0.844-21.707,1.588-31.816,2.328
		c-0.181,1.42-0.335,2.068-0.335,2.719c-0.005,21.498,0.009,42.994,0,64.49c0,0.834,0.102,1.776,0.014,2.604
		c17.45-25.039,34.052-48.862,50.854-72.972C138.618,131.346,134.053,132.535,131.248,138.387z"/>
	<path fill-rule="evenodd" clip-rule="evenodd" fill="#F6861F" d="M316.687,114.027c-0.815-3.027-1.161-5.168-1.96-7.125
		c-3.392-8.309-9.511-9.445-15.652-2.955c-1.132,1.195-2.211,2.498-3.03,3.916c-1.797,3.105-1.29,5.807,2.633,6.066
		C304.384,114.311,310.137,114.027,316.687,114.027z"/>
</g>
</svg>
