<svg width="20" height="20" viewBox="0 0 20 20" fill="none" xmlns="http://www.w3.org/2000/svg">
<path d="M18.125 0H1.875C0.839453 0 0 0.839453 0 1.875V18.125C0 19.1605 0.839453 20 1.875 20H18.125C19.1605 20 20 19.1605 20 18.125V1.875C20 0.839453 19.1605 0 18.125 0Z" fill="black"/>
<path d="M16.6161 4.73662L15.5447 5.76341C15.4509 5.83483 15.4063 5.95091 15.4241 6.06251V13.6205C15.4063 13.7366 15.4509 13.8527 15.5447 13.9197L16.5938 14.9464V15.1741H11.3259V14.9554L12.4107 13.9018C12.5179 13.7947 12.5179 13.7634 12.5179 13.6027V7.49108L9.50002 15.1518H9.09377L5.58037 7.49108V12.625C5.54912 12.8393 5.62502 13.058 5.7768 13.2143L7.18752 14.9241V15.1518H3.17859V14.9241L4.5893 13.2143C4.74109 13.058 4.80805 12.8393 4.77234 12.625V6.68751C4.7902 6.52233 4.7277 6.36162 4.6027 6.25001L3.34823 4.73662V4.50894H7.24555L10.2545 11.1161L12.9018 4.51341H16.6161V4.73662Z" fill="white"/>
</svg>
