<svg width="22" height="12" viewBox="0 0 22 12" fill="none" xmlns="http://www.w3.org/2000/svg">
<path d="M13.9032 5.90323C13.9032 7.50806 12.6048 8.80645 11 8.80645C9.39516 8.80645 8.09677 7.50806 8.09677 5.90323C8.09677 4.29839 9.39516 3 11 3C12.6048 3 13.9032 4.29839 13.9032 5.90323ZM18.0968 3C16.4919 3 15.1935 4.29839 15.1935 5.90323C15.1935 7.50806 16.4919 8.80645 18.0968 8.80645C19.7016 8.80645 21 7.50806 21 5.90323C21 4.29839 19.7016 3 18.0968 3ZM3.90323 3C2.29839 3 1 4.29839 1 5.90323C1 7.50806 2.29839 8.80645 3.90323 8.80645C5.50806 8.80645 6.80645 7.50806 6.80645 5.90323C6.80645 4.29839 5.50806 3 3.90323 3Z" fill="black"/>
</svg>
