<svg width="20" height="20" viewBox="0 0 20 20" fill="none" xmlns="http://www.w3.org/2000/svg">
<path d="M18.125 0H1.875C0.839453 0 0 0.839453 0 1.875V18.125C0 19.1605 0.839453 20 1.875 20H18.125C19.1605 20 20 19.1605 20 18.125V1.875C20 0.839453 19.1605 0 18.125 0Z" fill="black"/>
<path d="M10 2C12.7614 2 15 4.23856 15 7C15 9.76144 12.7614 12 10 12C7.23856 12 5 9.76144 5 7C5 4.23856 7.23856 2 10 2ZM15.7276 12.4319L13.4991 11.8748C11.1577 13.5588 8.31975 13.183 6.50094 11.8748L4.27241 12.4319C2.93691 12.7658 2 13.9657 2 15.3423V16.5C2 17.3284 2.67156 18 3.5 18H16.5C17.3284 18 18 17.3284 18 16.5V15.3423C18 13.9657 17.0631 12.7658 15.7276 12.4319Z" fill="white"/>
</svg>
