<svg width="20" height="20" viewBox="0 0 20 20" fill="none" xmlns="http://www.w3.org/2000/svg">
<path d="M18 0H2C0.897321 0 0 0.897322 0 2V18C0 19.1027 0.897321 20 2 20H18C19.1027 20 20 19.1027 20 18V2C20 0.897322 19.1027 0 18 0ZM16.8304 6.64286C16.7679 8.04911 15.7857 9.97768 13.8839 12.4196C11.9196 14.9732 10.2545 16.25 8.89732 16.25C8.05357 16.25 7.34375 15.4732 6.75893 13.9152C5.62054 9.75 5.13393 7.30804 4.19643 7.30804C4.08929 7.30804 3.70982 7.53571 3.0625 7.98661L2.38393 7.11161C4.04911 5.64732 5.63839 4.02232 6.63393 3.93304C7.75893 3.82589 8.45089 4.59375 8.70982 6.24107C9.63393 12.0982 10.0446 12.9821 11.7277 10.3304C12.3304 9.375 12.6563 8.64732 12.7009 8.14732C12.8571 6.66518 11.5446 6.76786 10.6563 7.14732C11.3661 4.82143 12.7232 3.69196 14.7277 3.75446C16.2143 3.79464 16.9152 4.75893 16.8304 6.64286Z" fill="black"/>
</svg>
