<?xml version="1.0" encoding="utf-8"?>
<!-- Generator: Adobe Illustrator 16.0.0, SVG Export Plug-In . SVG Version: 6.00 Build 0)  -->
<!DOCTYPE svg PUBLIC "-//W3C//DTD SVG 1.1//EN" "http://www.w3.org/Graphics/SVG/1.1/DTD/svg11.dtd">
<svg version="1.1" id="Layer_1" xmlns="http://www.w3.org/2000/svg" xmlns:xlink="http://www.w3.org/1999/xlink" x="0px" y="0px"
	 width="109.127px" height="132.6px" viewBox="0 0 109.127 132.6" enable-background="new 0 0 109.127 132.6" xml:space="preserve">
<g>
	<path fill="#FFFFFF" d="M107.918,90.117c-1.092-6.418-2.251-12.867-4.484-18.982c-5.125-14.04-16.506-26.128-30.898-30.159
		l-16.703-1.113v-0.168l-1.268,0.084l-1.268-0.084v0.168l-16.704,1.113C22.199,45.007,10.819,57.095,5.694,71.135
		C3.461,77.25,2.301,83.699,1.209,90.117c-0.746,4.39-1.468,8.834-1.119,13.272c0.513,6.522,3.423,12.83,8.053,17.453
		c5.78,5.772,15.745,9.712,23.755,10.563c7.105,0.754,14.251,1.155,21.398,1.178v0.015c0.422,0.005,0.845-0.008,1.268-0.007
		c0.422-0.001,0.845,0.012,1.268,0.007v-0.015c7.146-0.022,14.292-0.424,21.398-1.178c8.01-0.852,17.973-4.791,23.754-10.563
		c4.629-4.623,7.539-10.931,8.053-17.453C109.386,98.951,108.665,94.507,107.918,90.117"/>
	<path fill="#7B354C" d="M39.893,88.854c0-2.371-1.923-4.295-4.295-4.295s-4.295,1.924-4.295,4.295c0,2.372,1.923,4.295,4.295,4.295
		S39.893,91.226,39.893,88.854"/>
	<path fill="#7B354C" d="M78.487,88.854c0-2.371-1.923-4.295-4.295-4.295s-4.295,1.924-4.295,4.295c0,2.372,1.923,4.295,4.295,4.295
		S78.487,91.226,78.487,88.854"/>
	<g opacity="0.42">
		<g>
			<defs>
				<rect id="SVGID_1_" x="26.161" y="96.016" width="13.953" height="9.046"/>
			</defs>
			<clipPath id="SVGID_2_">
				<use xlink:href="#SVGID_1_"  overflow="visible"/>
			</clipPath>
			<path clip-path="url(#SVGID_2_)" fill="#F7A9AC" d="M39.596,102.274c3.446-7.481-11.347-8.028-13.248-2.849
				c-0.689,1.879,0.619,4.033,2.414,4.918c1.794,0.887,3.904,0.799,5.889,0.543C36.585,104.639,38.78,104.045,39.596,102.274"/>
		</g>
	</g>
	<g opacity="0.42">
		<g>
			<defs>
				<rect id="SVGID_3_" x="69.897" y="96.016" width="13.953" height="9.046"/>
			</defs>
			<clipPath id="SVGID_4_">
				<use xlink:href="#SVGID_3_"  overflow="visible"/>
			</clipPath>
			<path clip-path="url(#SVGID_4_)" fill="#F7A9AC" d="M70.416,102.274c-3.446-7.481,11.347-8.028,13.248-2.849
				c0.688,1.879-0.619,4.033-2.414,4.918c-1.794,0.887-3.905,0.799-5.889,0.543C73.426,104.639,71.231,104.045,70.416,102.274"/>
		</g>
	</g>
	<path fill="#F27283" d="M52.224,97.1c0.252,1.803,0.505,3.641,0.209,5.436c-0.253,1.543-0.899,2.988-1.474,4.441
		c-1.411,3.564-2.434,7.361-2.235,11.189c0.116,2.232,0.628,4.396,2.52,5.808c2.542,1.896,5.696,0.746,7.466-1.649
		c3.305-4.473,0.369-11.09-0.814-15.783c-0.567-2.246-0.908-4.549-1.019-6.862c-0.082-1.739,0.028-3.651,1.192-4.946"/>
	<path fill="#FED406" d="M65.558,88.86c0.22,0.108,0.438,0.221,0.657,0.338c0.24,0.13-4.417,5.681-4.895,6.142
		c-2.086,2.014-4.131,4.118-6.166,6.191c-0.072,0.072-0.155,0.15-0.257,0.152c-0.086,0.002-0.162-0.051-0.232-0.103
		c-4.384-3.217-8.275-7.187-11.754-11.38c-0.22-0.264,4.311-2.288,4.729-2.414c1.733-0.525,3.624-0.824,5.425-0.972
		C57.461,86.455,61.655,86.94,65.558,88.86"/>
	<g opacity="0.26">
		<g>
			<defs>
				<rect id="SVGID_5_" x="26.972" y="68.446" width="82.156" height="64.153"/>
			</defs>
			<clipPath id="SVGID_6_">
				<use xlink:href="#SVGID_5_"  overflow="visible"/>
			</clipPath>
			<path clip-path="url(#SVGID_6_)" fill="#F4EDE3" d="M107.918,90.117c-1.092-6.418-2.251-12.867-4.484-18.982
				c-0.33-0.907-0.697-1.801-1.084-2.688c-0.004,2.193-0.136,4.396-0.369,6.563c-0.039,2.475-0.257,4.966-0.711,7.49
				c-1.757,9.779-5.441,19.375-11.826,26.631c-3.832,5.025-8.608,9.32-14.461,12.5c-14.283,7.759-31.289,9.438-47.277,8.933
				c-0.239-0.007-0.49-0.015-0.733-0.022c1.685,0.398,3.345,0.697,4.926,0.865c7.105,0.754,14.251,1.155,21.398,1.178v0.015
				c0.422,0.005,0.845-0.008,1.268-0.007c0.422-0.001,0.845,0.012,1.268,0.007v-0.015c7.146-0.022,14.292-0.424,21.398-1.178
				c8.01-0.852,17.973-4.791,23.754-10.563c4.629-4.623,7.539-10.931,8.053-17.453C109.386,98.951,108.665,94.507,107.918,90.117"/>
		</g>
	</g>
	<g opacity="0.23">
		<g>
			<defs>
				<rect id="SVGID_7_" y="39.694" width="84.241" height="67.478"/>
			</defs>
			<clipPath id="SVGID_8_">
				<use xlink:href="#SVGID_7_"  overflow="visible"/>
			</clipPath>
			<path clip-path="url(#SVGID_8_)" fill="#FFFFFF" d="M0.687,107.172c5.024-19.239,20.759-37.301,36.276-46.68
				C51.511,51.7,67.69,47.584,84.24,46.422c-3.595-2.393-7.513-4.273-11.704-5.447l-16.704-1.112v-0.169l-1.268,0.084l-1.268-0.084
				v0.169l-16.704,1.112C22.199,45.006,10.819,57.094,5.694,71.135C3.461,77.252,2.301,83.698,1.21,90.117
				c-0.747,4.389-1.468,8.835-1.119,13.273C0.191,104.664,0.409,105.924,0.687,107.172"/>
		</g>
	</g>
	<path fill="#F27283" d="M81.366,43.345c-5.33,2.322-11.06,4.04-16.057,6.718c-4.48,2.401-10.835,8.609-16.275,7.659
		c-1.604-0.28-3.036-1.184-4.275-2.24c-5.008-4.264-7.239-12.038-9.168-18.119c-2.276-7.18-3.101-14.962-0.964-22.281
		c1.074-3.679,3.264-7.492,6.957-8.518c2.448-0.681,5.155,0.052,7.191,1.572c2.108,1.572,2.876,3.919,3.993,6.222
		C54.113,8.595,57.752,3.077,63.243,0.87c5.491-2.208,12.76-0.129,15.172,5.276c2.344,5.254-0.277,11.278-2.858,16.419
		c2.246-4.472,10.926-3.489,14.558-1.801c6.573,3.054,5.918,12.37,0.977,16.731C88.241,40.01,84.891,41.811,81.366,43.345"/>
	<g opacity="0.1">
		<g>
			<defs>
				<rect id="SVGID_9_" x="33.387" y="0.003" width="40.342" height="54.04"/>
			</defs>
			<clipPath id="SVGID_10_">
				<use xlink:href="#SVGID_9_"  overflow="visible"/>
			</clipPath>
			<path clip-path="url(#SVGID_10_)" fill="#FFFFFF" d="M52.267,26.607c4.707-6.331,10.708-11.37,15.895-17.269
				c2.046-2.327,4.235-5.01,5.567-7.951c-3.16-1.609-7.149-1.859-10.485-0.517c-5.492,2.207-9.131,7.725-10.475,13.488
				c-1.117-2.303-1.886-4.65-3.993-6.222c-2.037-1.52-4.743-2.253-7.191-1.572c-3.693,1.026-5.884,4.839-6.958,8.518
				c-2.137,7.319-1.312,15.101,0.965,22.281c1.729,5.451,3.708,12.255,7.705,16.68C42.472,44.632,46.375,34.533,52.267,26.607"/>
		</g>
	</g>
</g>
</svg>
