<?xml version="1.0" encoding="utf-8"?>
<!-- Generator: Adobe Illustrator 16.0.0, SVG Export Plug-In . SVG Version: 6.00 Build 0)  -->
<!DOCTYPE svg PUBLIC "-//W3C//DTD SVG 1.1//EN" "http://www.w3.org/Graphics/SVG/1.1/DTD/svg11.dtd">
<svg version="1.1" id="Layer_1" xmlns="http://www.w3.org/2000/svg" xmlns:xlink="http://www.w3.org/1999/xlink" x="0px" y="0px"
	 width="159.899px" height="99.454px" viewBox="0 0 159.899 99.454" enable-background="new 0 0 159.899 99.454"
	 xml:space="preserve">
<g>
	<path fill="#F29454" d="M31.972,32.458c-3.09-6.074-11.198-7.737-17.365-6.419C8.44,27.356,3.156,31.679,1.124,37.715
		c-0.689,2.048-0.958,4.215-1.07,6.373c-0.093,1.757-0.084,3.528,0.192,5.266c0.893,5.59,4.69,10.546,9.69,13.128
		c5.578,2.88,12.263,2.406,17.423-1.057"/>
	<path fill="#F29454" d="M127.927,32.458c3.09-6.074,11.197-7.737,17.364-6.419c6.167,1.317,11.451,5.64,13.483,11.676
		c0.689,2.048,0.958,4.215,1.071,6.373c0.092,1.757,0.084,3.528-0.193,5.266c-0.892,5.59-4.69,10.546-9.69,13.128
		c-5.578,2.88-12.263,2.406-17.423-1.057"/>
	<path fill="#F6D1B8" d="M28.642,35.986c-2.149-4.224-7.787-5.381-12.076-4.464c-4.288,0.916-7.962,3.922-9.376,8.12
		c-0.479,1.424-0.665,2.931-0.744,4.432c-0.064,1.222-0.06,2.453,0.134,3.661c0.62,3.886,3.261,7.333,6.738,9.13
		c3.879,2.002,8.527,1.672,12.116-0.735"/>
	<path fill="#F6D1B8" d="M131.257,35.986c2.148-4.224,7.787-5.381,12.075-4.464c4.288,0.916,7.963,3.922,9.376,8.12
		c0.479,1.424,0.665,2.931,0.744,4.432c0.064,1.222,0.06,2.453-0.134,3.661c-0.62,3.886-3.261,7.333-6.738,9.13
		c-3.879,2.002-8.527,1.672-12.115-0.735"/>
	<path fill="#F9A668" d="M132.583,32.882c-4.755-11.098-13.551-20.28-24.152-25.973c-5.42-2.91-10.608-5.389-16.723-6.188
		c-7.35-0.96-14.901-0.962-22.263,0C63.332,1.52,58.144,3.999,52.723,6.909c-10.601,5.693-19.396,14.875-24.151,25.973
		c-5.236,12.221-7.073,27.341-2.556,40.057c7.612,21.422,32.5,27.159,54.562,26.515c22.061,0.645,46.949-5.093,54.561-26.515
		C139.657,60.223,137.82,45.103,132.583,32.882"/>
	<path fill="#F6D1B8" d="M126.097,51.284c-1.012-5.575-2.537-11.156-5.548-15.961c-4.852-7.747-13.874-12.36-23.035-10.226
		c-3.834,0.893-7.592,2.899-10.66,5.274c-1.774,1.374-4.476,3.723-6.866,3.324c-2.165-0.36-4.04-2.049-5.688-3.324
		c-3.067-2.376-6.827-4.381-10.66-5.274c-9.161-2.134-18.183,2.479-23.035,10.226c-3.011,4.806-4.535,10.387-5.548,15.961
		c-1.002,5.519-1.027,11.002,0.038,16.49c0.992,5.105,5.543,10.264,9.382,13.525c3.969,3.369,8.638,5.829,13.44,7.854
		c6.869,2.899,14.807,3.832,22.542,3.773c0.039,0,0.079-0.001,0.118-0.001s0.079,0.001,0.118-0.001
		c7.733,0.061,15.673-0.872,22.542-3.771c4.802-2.025,9.472-4.485,13.439-7.854c3.839-3.262,8.391-8.42,9.382-13.525
		C127.125,62.286,127.099,56.802,126.097,51.284"/>
	<path fill="#7B354C" d="M79.953,57.547c0.083,3.393,0.166,6.786,0.249,10.179c0.017,0.644,1.017,0.645,1,0
		c-0.083-3.393-0.166-6.786-0.249-10.179C80.937,56.903,79.937,56.902,79.953,57.547"/>
	<path fill="#7B354C" d="M73.602,63.213c0.897,3.1,3.781,5.069,6.919,5.354c3.784,0.343,6.217-3.617,7.031-6.713
		c0.164-0.625-0.8-0.89-0.964-0.267c-0.688,2.609-1.963,4.735-4.588,5.755c-3.027,1.175-6.621-1.585-7.435-4.395
		C74.387,62.33,73.422,62.592,73.602,63.213"/>
	<path fill="#7B354C" d="M82.897,61.012c1.932-1.241,7.459-6.16,3.198-8.008c-1.66-0.721-3.635-0.614-5.404-0.607
		c-1.813,0.008-8.026,0.241-7.295,3.159c0.483,1.933,1.882,3.387,3.414,4.573c1.629,1.259,3.12,2.471,5.206,1.392
		C82.317,61.366,82.611,61.196,82.897,61.012"/>
	<path fill="#7B354C" d="M68.324,54.867c0-2.43-1.97-4.401-4.401-4.401c-2.43,0-4.399,1.971-4.399,4.401
		c0,2.431,1.97,4.401,4.399,4.401C66.354,59.268,68.324,57.297,68.324,54.867"/>
	<g opacity="0.32">
		<g>
			<defs>
				<rect id="SVGID_1_" x="54.253" y="62.206" width="14.297" height="9.268"/>
			</defs>
			<clipPath id="SVGID_2_">
				<use xlink:href="#SVGID_1_"  overflow="visible"/>
			</clipPath>
			<path clip-path="url(#SVGID_2_)" fill="#F7A9AC" d="M68.019,68.618c3.53-7.667-11.627-8.226-13.574-2.918
				c-0.706,1.925,0.635,4.132,2.474,5.039c1.839,0.908,4.001,0.817,6.035,0.556C64.934,71.041,67.183,70.433,68.019,68.618"/>
		</g>
	</g>
	<path fill="#7B354C" d="M93.987,54.867c0-2.43,1.97-4.401,4.401-4.401c2.43,0,4.399,1.971,4.399,4.401
		c0,2.431-1.97,4.401-4.399,4.401C95.957,59.268,93.987,57.297,93.987,54.867"/>
	<g opacity="0.32">
		<g>
			<defs>
				<rect id="SVGID_3_" x="93.76" y="62.206" width="14.297" height="9.268"/>
			</defs>
			<clipPath id="SVGID_4_">
				<use xlink:href="#SVGID_3_"  overflow="visible"/>
			</clipPath>
			<path clip-path="url(#SVGID_4_)" fill="#F7A9AC" d="M94.292,68.618c-3.53-7.667,11.627-8.226,13.574-2.918
				c0.706,1.925-0.634,4.132-2.474,5.039c-1.839,0.908-4.001,0.817-6.034,0.556C97.376,71.041,95.127,70.433,94.292,68.618"/>
		</g>
	</g>
	<g opacity="0.16">
		<g>
			<defs>
				<rect id="SVGID_5_" x="41.895" y="31.987" width="95.805" height="67.514"/>
			</defs>
			<clipPath id="SVGID_6_">
				<use xlink:href="#SVGID_5_"  overflow="visible"/>
			</clipPath>
			<path clip-path="url(#SVGID_6_)" fill="#F9A668" d="M132.583,32.882c-0.129-0.301-0.27-0.596-0.405-0.894
				c-0.039,0.673-0.07,1.345-0.131,2.02c-1.337,14.892-4.513,31.983-16.141,42.51c-14.261,12.91-33.489,16.774-52.219,16.654
				c-7.226-0.046-14.634-0.377-21.794-1.634c10.963,6.346,25.336,8.305,38.684,7.915c22.061,0.645,46.949-5.093,54.561-26.515
				C139.657,60.223,137.82,45.103,132.583,32.882"/>
		</g>
	</g>
</g>
</svg>
