<?xml version="1.0" encoding="utf-8"?>
<!-- Generator: Adobe Illustrator 16.0.0, SVG Export Plug-In . SVG Version: 6.00 Build 0)  -->
<!DOCTYPE svg PUBLIC "-//W3C//DTD SVG 1.1//EN" "http://www.w3.org/Graphics/SVG/1.1/DTD/svg11.dtd">
<svg version="1.1" id="Layer_1" xmlns="http://www.w3.org/2000/svg" xmlns:xlink="http://www.w3.org/1999/xlink" x="0px" y="0px"
	 width="114.669px" height="98.355px" viewBox="0 0 114.669 98.355" enable-background="new 0 0 114.669 98.355"
	 xml:space="preserve">
<g>
	<path fill="#F59EC3" d="M113.66,50.045c-1.505-8.946-4.178-19.258-9.328-26.702C95.096,9.992,79.805,2.249,64.156,0.273
		c-2.279-0.288-4.558-0.333-6.822-0.206c-2.263-0.127-4.543-0.082-6.82,0.206c-15.649,1.976-30.94,9.719-40.178,23.07
		c-5.149,7.444-7.822,17.756-9.327,26.702c-1.194,7.101-1.341,14.536-0.373,21.675c0.526,3.886,1.148,7.928,3.622,10.995
		C12.876,93.403,28.92,95.887,41.6,97.504c5.216,0.666,10.479,0.933,15.734,0.828c5.257,0.104,10.52-0.162,15.736-0.828
		c12.679-1.617,28.722-4.102,37.341-14.789c2.475-3.067,3.096-7.109,3.622-10.995C115,64.581,114.855,57.146,113.66,50.045"/>
	<path fill="#E975AB" d="M71.246,61.583c0,7.969-6.921,12.342-15.459,12.342s-15.46-4.373-15.46-12.342s6.922-15.473,15.46-15.473
		S71.246,53.614,71.246,61.583"/>
	<g opacity="0.12">
		<g>
			<defs>
				<rect id="SVGID_1_" x="40.629" y="46.11" width="25.49" height="12.675"/>
			</defs>
			<clipPath id="SVGID_2_">
				<use xlink:href="#SVGID_1_"  overflow="visible"/>
			</clipPath>
			<path clip-path="url(#SVGID_2_)" fill="#FFFFFF" d="M58.577,49.499c2.734-0.039,5.235,0.237,7.542,0.8
				c-2.734-2.55-6.353-4.189-10.333-4.189c-7.525,0-13.777,5.834-15.157,12.675C44.879,53.307,50.99,49.606,58.577,49.499"/>
		</g>
	</g>
	<path fill="#7B354C" d="M35.089,56.018c0-2.528-2.05-4.578-4.578-4.578s-4.577,2.05-4.577,4.578c0,2.527,2.049,4.578,4.577,4.578
		S35.089,58.545,35.089,56.018"/>
	<g opacity="0.23">
		<g>
			<defs>
				<rect id="SVGID_3_" x="20.453" y="63.652" width="14.871" height="9.641"/>
			</defs>
			<clipPath id="SVGID_4_">
				<use xlink:href="#SVGID_3_"  overflow="visible"/>
			</clipPath>
			<path clip-path="url(#SVGID_4_)" fill="#E975AB" d="M34.771,70.322c3.673-7.976-12.095-8.558-14.119-3.035
				c-0.735,2.002,0.659,4.298,2.572,5.242c1.912,0.944,4.161,0.849,6.277,0.578C31.563,72.842,33.903,72.209,34.771,70.322"/>
		</g>
	</g>
	<path fill="#7B354C" d="M76.614,56.018c0-2.528,2.049-4.578,4.577-4.578s4.577,2.05,4.577,4.578c0,2.527-2.049,4.578-4.577,4.578
		S76.614,58.545,76.614,56.018"/>
	<g opacity="0.23">
		<g>
			<defs>
				<rect id="SVGID_5_" x="76.378" y="63.652" width="14.872" height="9.641"/>
			</defs>
			<clipPath id="SVGID_6_">
				<use xlink:href="#SVGID_5_"  overflow="visible"/>
			</clipPath>
			<path clip-path="url(#SVGID_6_)" fill="#E975AB" d="M76.931,70.322c-3.672-7.976,12.095-8.558,14.12-3.035
				c0.734,2.002-0.66,4.298-2.573,5.242c-1.912,0.944-4.161,0.849-6.277,0.578C80.14,72.842,77.8,72.209,76.931,70.322"/>
		</g>
	</g>
	<path fill="#803F61" d="M52.458,57.919c0-1.602-1.299-2.901-2.901-2.901s-2.901,1.3-2.901,2.901c0,1.603,1.299,2.902,2.901,2.902
		S52.458,59.522,52.458,57.919"/>
	<path fill="#803F61" d="M64.918,57.919c0-1.602-1.299-2.901-2.901-2.901s-2.901,1.3-2.901,2.901c0,1.603,1.299,2.902,2.901,2.902
		S64.918,59.522,64.918,57.919"/>
	<path fill="#E975AB" d="M35.086,16.708C33.09,11.845,28.777,2.333,21.948,5.784c-4.554,2.302-5.995,8.222-9.765,11.341
		c-1.71,1.415-3.758,2.351-5.614,3.568s-3.604,2.848-4.182,4.991c-1.387,5.144,2.609,9.091,6.672,11.342
		c7.507,4.159,16.896,7.118,25.544,6.568c0.486-0.031,0.979-0.093,1.431-0.275c1.304-0.523,2.037-1.94,2.296-3.321
		C39.699,32.686,37.892,23.545,35.086,16.708"/>
	<g opacity="0.09">
		<g>
			<defs>
				<rect id="SVGID_7_" x="40.145" y="22.443" width="74.524" height="75.912"/>
			</defs>
			<clipPath id="SVGID_8_">
				<use xlink:href="#SVGID_7_"  overflow="visible"/>
			</clipPath>
			<path clip-path="url(#SVGID_8_)" fill="#E975AB" d="M113.66,50.045c-1.505-8.946-4.178-19.258-9.328-26.702
				c-0.213-0.308-0.44-0.602-0.666-0.9c0.933,4.578,1.433,9.263,1.688,13.835c0.738,13.182-0.396,27.155-8.408,38.1
				c-8.167,11.158-22.403,17.599-35.608,20.248c-6.99,1.403-14.089,2.151-21.192,2.69c0.488,0.063,0.976,0.128,1.455,0.188
				c5.216,0.666,10.479,0.933,15.734,0.828c5.257,0.104,10.52-0.162,15.736-0.828c12.679-1.617,28.722-4.102,37.341-14.789
				c2.475-3.067,3.096-7.109,3.622-10.995C115,64.581,114.855,57.146,113.66,50.045"/>
		</g>
	</g>
	<path fill="#E975AB" d="M78.137,16.708c1.996-4.863,6.31-14.375,13.139-10.924c4.553,2.302,5.995,8.222,9.764,11.341
		c1.71,1.415,3.758,2.351,5.615,3.568c1.855,1.217,3.603,2.848,4.181,4.991c1.387,5.144-2.608,9.091-6.672,11.342
		c-7.507,4.159-16.895,7.118-25.544,6.568c-0.486-0.031-0.979-0.093-1.43-0.275c-1.305-0.523-2.037-1.94-2.296-3.321
		C73.524,32.686,75.331,23.545,78.137,16.708"/>
</g>
</svg>
