<?xml version="1.0" encoding="utf-8"?>
<!-- Generator: Adobe Illustrator 16.0.0, SVG Export Plug-In . SVG Version: 6.00 Build 0)  -->
<!DOCTYPE svg PUBLIC "-//W3C//DTD SVG 1.1//EN" "http://www.w3.org/Graphics/SVG/1.1/DTD/svg11.dtd">
<svg version="1.1" id="Layer_1" xmlns="http://www.w3.org/2000/svg" xmlns:xlink="http://www.w3.org/1999/xlink" x="0px" y="0px"
	 width="125.41px" height="111.049px" viewBox="0 0 125.41 111.049" enable-background="new 0 0 125.41 111.049"
	 xml:space="preserve">
<g>
	<path fill="#48BDA0" d="M124.371,61.849c-2.115-10.414-6.609-20.542-12.092-29.609c2.811-4.338,4.188-9.139,4.107-14.364
		C116.162,3.282,101.734-3.653,88.689,1.92c-8.893,3.798-8.609,11.674-8.604,19.848c-1.563-0.932-3.4-1.269-5.201-1.521
		c-8.289-1.167-16.064-1.168-24.359,0c-1.801,0.253-3.639,0.59-5.201,1.521c0.006-8.174,0.289-16.05-8.603-19.848
		C23.675-3.653,9.249,3.282,9.023,17.875c-0.08,5.226,1.297,10.026,4.108,14.364C7.649,41.307,3.155,51.435,1.039,61.849
		c-2.168,10.669-1.146,22.488,4.997,31.76c3.809,5.75,11.882,10.511,18.35,12.58c11.156,3.569,22.959,4.898,34.638,4.91
		c1.227,0.001,2.454-0.021,3.681-0.05c1.227,0.029,2.453,0.051,3.68,0.05c11.68-0.012,23.484-1.341,34.639-4.91
		c6.469-2.069,14.541-6.83,18.352-12.58C125.518,84.337,126.539,72.518,124.371,61.849"/>
	<path fill="#E4E64F" d="M35.153,35.461c4.009-8.706-13.203-9.342-15.414-3.313c-0.802,2.186,0.721,4.692,2.808,5.722
		c2.088,1.03,4.544,0.928,6.853,0.632C31.649,38.212,34.204,37.521,35.153,35.461"/>
	<path fill="#E4E64F" d="M89.428,35.461c-4.008-8.706,13.203-9.342,15.414-3.313c0.803,2.186-0.721,4.692-2.807,5.722
		c-2.088,1.03-4.545,0.928-6.854,0.632C92.932,38.212,90.377,37.521,89.428,35.461"/>
	<path fill="#316759" d="M32.635,19.034c0-2.761-2.237-4.997-4.997-4.997c-2.76,0-4.997,2.236-4.997,4.997
		c0,2.76,2.237,4.997,4.997,4.997C30.398,24.031,32.635,21.794,32.635,19.034"/>
	<path fill="#316759" d="M91.945,19.034c0-2.761,2.238-4.997,4.998-4.997s4.996,2.236,4.996,4.997c0,2.76-2.236,4.997-4.996,4.997
		S91.945,21.794,91.945,19.034"/>
	<path fill="#316759" d="M55.355,24.908c-0.421,4.517,2.776,7.983,7.225,8.242c4.492,0.262,7.614-3.979,7.527-8.109
		c-0.021-0.967-1.521-0.969-1.5,0c0.077,3.644-2.35,6.431-6.027,6.609c-3.707,0.182-6.038-3.38-5.725-6.742
		C56.945,23.945,55.444,23.953,55.355,24.908"/>
	<g opacity="0.39">
		<g>
			<defs>
				<rect id="SVGID_1_" x="11.708" y="50.679" width="113.703" height="60.42"/>
			</defs>
			<clipPath id="SVGID_2_">
				<use xlink:href="#SVGID_1_"  overflow="visible"/>
			</clipPath>
			<path clip-path="url(#SVGID_2_)" fill="#316759" d="M124.371,61.849c-0.768-3.774-1.854-7.508-3.18-11.169
				c-2.453,15.834-11.807,31.621-23.826,40.408C82.869,101.687,62,105.854,44.357,105.397c-11.102-0.287-22.212-2.182-32.65-5.911
				c3.884,3.02,8.599,5.396,12.679,6.702c11.156,3.569,22.959,4.898,34.638,4.91c1.227,0.001,2.454-0.021,3.681-0.05
				c1.227,0.029,2.453,0.051,3.68,0.05c11.68-0.012,23.484-1.341,34.639-4.91c6.469-2.069,14.541-6.83,18.352-12.58
				C125.518,84.337,126.539,72.518,124.371,61.849"/>
		</g>
	</g>
	<g opacity="0.39">
		<g>
			<defs>
				<rect id="SVGID_3_" x="20.895" y="70.275" width="81.369" height="28.25"/>
			</defs>
			<clipPath id="SVGID_4_">
				<use xlink:href="#SVGID_3_"  overflow="visible"/>
			</clipPath>
			<path clip-path="url(#SVGID_4_)" fill="#254C41" d="M40.08,74.275c2.579,0,2.579-4,0-4S37.5,74.275,40.08,74.275"/>
			<path clip-path="url(#SVGID_4_)" fill="#254C41" d="M68.33,77.775c2.578,0,2.578-4,0-4C65.75,73.775,65.75,77.775,68.33,77.775"
				/>
			<path clip-path="url(#SVGID_4_)" fill="#254C41" d="M50.33,86.525c2.579,0,2.579-4,0-4S47.75,86.525,50.33,86.525"/>
			<path clip-path="url(#SVGID_4_)" fill="#254C41" d="M60.58,98.525c2.579,0,2.579-4,0-4C58,94.525,58,98.525,60.58,98.525"/>
			<path clip-path="url(#SVGID_4_)" fill="#254C41" d="M77.08,89.525c2.578,0,2.578-4,0-4C74.5,85.525,74.5,89.525,77.08,89.525"/>
			<path clip-path="url(#SVGID_4_)" fill="#254C41" d="M85.33,76.025c2.578,0,2.578-4,0-4C82.75,72.025,82.75,76.025,85.33,76.025"
				/>
			<path clip-path="url(#SVGID_4_)" fill="#254C41" d="M98.33,83.525c2.578,0,2.578-4,0-4C95.75,79.525,95.75,83.525,98.33,83.525"
				/>
			<path clip-path="url(#SVGID_4_)" fill="#254C41" d="M100.33,93.275c2.578,0,2.578-4,0-4C97.75,89.275,97.75,93.275,100.33,93.275
				"/>
			<path clip-path="url(#SVGID_4_)" fill="#254C41" d="M38.83,97.525c2.579,0,2.579-4,0-4S36.25,97.525,38.83,97.525"/>
			<path clip-path="url(#SVGID_4_)" fill="#254C41" d="M22.83,80.525c2.579,0,2.579-4,0-4S20.25,80.525,22.83,80.525"/>
			<path clip-path="url(#SVGID_4_)" fill="#254C41" d="M31.33,87.025c2.579,0,2.579-4,0-4S28.75,87.025,31.33,87.025"/>
		</g>
	</g>
</g>
</svg>
